<?xml version="1.0" encoding="utf-8"?>
<!-- Generator: Adobe Illustrator 18.1.1, SVG Export Plug-In . SVG Version: 6.00 Build 0)  -->
<svg version="1.1" id="Layer_1" xmlns="http://www.w3.org/2000/svg" xmlns:xlink="http://www.w3.org/1999/xlink" x="0px" y="0px"
	 viewBox="703.5 292.1 93 29.4" enable-background="new 703.5 292.1 93 29.4" xml:space="preserve">
<g>
	<path fill="#FFFFFF" d="M795,319.4h-0.3v-0.6h0.4c0.2,0,0.4,0,0.4,0.3C795.4,319.4,795.2,319.4,795,319.4L795,319.4z M795.7,319.1
		c0-0.3-0.2-0.5-0.6-0.5h-0.7v1.7h0.3v-0.8h0.3l0.5,0.8h0.3l-0.5-0.8C795.5,319.6,795.7,319.4,795.7,319.1L795.7,319.1z M795,320.8
		c-0.7,0-1.2-0.6-1.2-1.3c0-0.7,0.5-1.3,1.2-1.3c0.7,0,1.2,0.6,1.2,1.3C796.2,320.2,795.7,320.8,795,320.8L795,320.8z M795,318
		c-0.8,0-1.5,0.6-1.5,1.5c0,0.9,0.7,1.5,1.5,1.5c0.8,0,1.5-0.6,1.5-1.5C796.5,318.6,795.8,318,795,318L795,318z M785.9,313.5
		l9.8-15.1h-15l-2.6,4v-4l0,0l0,0c-3.2,0-5.1,0.3-7.4,2.4v-2.5h-8.6v4.7c0,3.3,2.7,6,5.8,6.2l2.9,0.2c0.4-1.6,1.8-3.6,7.2-3.6l0,0
		h3.9l-9.8,15.1h18.7l4.8-7.5H785.9L785.9,313.5z M734.9,315.2c-2.3,0-2.5-1.7-2.5-2.6v-6.7h3.2c-0.4,1.2-0.6,2.5-0.6,3.9
		c0,2,0.5,3.8,1.3,5.4C735.8,315.2,735.3,315.2,734.9,315.2L734.9,315.2z M752,300.7c-1.2-1.8-3.1-3-5.8-3c-3.3,0-6.2,1.5-8.2,3.9
		c-0.6,0.7-1.1,1.4-1.5,2.2v-5.5h-4v-6.1h-8.6v18.3c-0.6-1.2-1.5-2.2-2.8-2.9c-1.1-0.6-2-0.8-5.8-1.7c-2.9-0.7-3.5-0.9-3.5-1.7
		c0-1.2,1.5-1.2,1.9-1.2c2.3,0,4.2,1.2,5.6,2.1l3.5-5.1c-1-0.6-2.2-1.2-4.3-1.7c-1.7-0.4-3.3-0.6-4.9-0.6c-1.4,0-5.1,0.1-7.7,2.6
		c-1.5,1.3-2.4,3.1-2.4,5c0,4.6,4,5.8,6,6.4c2,0.6,3.8,0.9,4.6,1c0.9,0.1,2.2,0.3,2.2,1.5c0,1-1.2,1.4-2.3,1.4
		c-0.7,0-1.9-0.1-3.5-0.7c-1.7-0.7-2.5-1.5-3.3-2.3l-3.7,5.4c2.1,1.5,5.3,3.5,10.4,3.5c5.1,0,8.5-2.3,9.8-5.2
		c0.1,1.1,0.4,2.4,1.5,3.5c1.7,1.8,4.7,1.8,5.7,1.8c1.8,0,3.6-0.2,5.4-0.5v-5.4c2,3.6,5.5,5.9,9.7,5.9c2.9,0,4.7-1.1,5.8-3v2.5h8.6
		v-4.7c0-3.3-2.7-6-5.8-6.2l-2.8-0.2c-0.1,2.4-2.1,4.3-4.5,4.3c-2.5,0-4.5-2-4.5-4.5c0-2.5,2-4.5,4.5-4.5c2.4,0,4.4,1.9,4.5,4.3
		l2.8-0.2c3.3-0.2,5.8-3,5.8-6.2v-4.8H752V300.7L752,300.7z M762.1,316.2v4.7h8.7v-10.6c0-0.1,0-0.3,0-0.4l-2.8,0.2
		C764.7,310.2,762.1,313,762.1,316.2L762.1,316.2z"/>
</g>
</svg>
