<?xml version="1.0" encoding="utf-8"?>
<!-- Generator: Adobe Illustrator 18.1.1, SVG Export Plug-In . SVG Version: 6.00 Build 0)  -->
<svg version="1.1" id="Layer_1" xmlns="http://www.w3.org/2000/svg" xmlns:xlink="http://www.w3.org/1999/xlink" x="0px" y="0px"
	 viewBox="605.4 284.4 293.5 42" enable-background="new 605.4 284.4 293.5 42" xml:space="preserve">
<g>
	<g>
		<g>
			<path fill="#FFFFFF" d="M643.7,313.6c0,6.2-5.8,11.9-16.1,11.9h-22.1l6.9-39.4h20.4c7.4,0,12.3,4.3,12.3,9.4
				c0,3.9-2.9,8.7-7.3,9.9C641.4,306.5,643.7,309.7,643.7,313.6z M626,315.1c3.3,0,4.8-1.1,4.8-3c0-1.3-1-2.1-3-2.1h-6l-0.9,5.3h5.2
				V315.1z M627.3,301.5c2.5,0,4.1-1.3,4.1-3.1c0-1.4-1.1-2.1-2.9-2.1h-4.4l-0.9,5.3H627.3z"/>
			<path fill="#FFFFFF" d="M657.7,325.4h-13.1l7.3-41h13L657.7,325.4z"/>
			<path fill="#FFFFFF" d="M693.6,325.4h-13l0.3-1.4c-2.5,1.5-4.8,2.3-7.5,2.3c-6.5,0-10.7-4-9.3-11.7l3.1-18h13l-2.6,14.6
				c-0.5,2.9,1,3.5,2.3,3.5c1,0,1.9-0.3,2.9-1l3-17.1h13L693.6,325.4z"/>
			<path fill="#FFFFFF" d="M732.8,307.4l-3.1,18h-13l2.5-14.6c0.5-2.9-1-3.5-2.3-3.5c-1,0-1.9,0.3-2.9,1l-3,17.1h-13l5-28.9h13
				L716,298c2.4-1.5,4.8-2.3,7.4-2.3C730,295.7,734.2,299.6,732.8,307.4z"/>
			<path fill="#FFFFFF" d="M751.9,311.2c-0.4,2,0.3,3.3,2.5,3.3c0.9,0,2.3-0.1,5.8-0.5l-0.8,10.7c-4.8,1.4-8.2,1.8-11.4,1.8
				c-7,0-10.7-5.7-9.3-14.3l0.8-4.1h-4.7l2-11.3h4.7l1.5-8.7h13l-1.5,8.7h8.4l-2,11.3h-8.4L751.9,311.2z"/>
		</g>
	</g>
	<g>
		<path fill="#FFFFFF" d="M799.5,297.7l-4.9,27.8H781l4.9-27.8h-10.9l2.1-11.6h35.2l-2.1,11.6C810.1,297.7,799.5,297.7,799.5,297.7z
			"/>
		<path fill="#FFFFFF" d="M837.2,325.4h-13l0.3-1.3c-2.3,1.1-4.4,1.8-7.4,1.8c-6.7,0-11.8-5-11.8-12.7c0-10.4,8.8-17.6,17.2-17.6
			c3,0,4.9,0.8,6.8,1.8l0.1-0.9h13L837.2,325.4z M826,314.8l1.4-7.9c-1.3-1-2.4-1.3-3.5-1.3c-3.1,0-6.3,2.3-6.3,6.2
			c0,2.8,1.9,4.3,4.4,4.3C823.1,316.1,824.4,315.8,826,314.8z"/>
		<path fill="#FFFFFF" d="M854.5,325.4h-13l7.3-41h13L854.5,325.4z"/>
		<path fill="#FFFFFF" d="M893.8,325.4h-14.1l-3.5-7.8l-2.9,2.8l-0.9,5h-13l7.3-41h13l-3.5,19.7l8.4-7.7h14.3L886.5,308L893.8,325.4
			z"/>
	</g>
</g>
</svg>
