<?xml version="1.0" encoding="utf-8"?>
<!-- Generator: Adobe Illustrator 18.1.1, SVG Export Plug-In . SVG Version: 6.00 Build 0)  -->
<svg version="1.1" id="Layer_1" xmlns="http://www.w3.org/2000/svg" xmlns:xlink="http://www.w3.org/1999/xlink" x="0px" y="0px"
	 viewBox="0 0 731.5 934.5" enable-background="new 0 0 731.5 934.5" xml:space="preserve">
<g>
	<path fill="none" stroke="#E9262D" stroke-width="4" stroke-miterlimit="10" d="M41.2,741.3c-0.1,4,0.7,8.1,2.5,12.5
		c1.4,3.2,2.9,6.4,4.7,9.4c8.9,14.8,21,26.7,35,36.4c11.4,7.8,23.4,14.7,35.5,21.5c24.3,13.8,47.7,28.9,69,47.1
		c8.6,7.4,16.9,15.1,25.7,22.1c16.3,12.9,35.4,20.3,54.9,26.7c8.9,2.9,18,5.1,26.6,8.6c11.6,4.7,23.5,7.3,35.8,7.1
		c8.5-0.2,17-1.7,23.8-8c8.1-7.6,15.7-15.7,22-24.9c9.2-13.7,17.2-27.9,18.2-44.9c0.1-2.2,1.3-4.5,2.5-6.4c3.1-5.4,6.6-10.5,9.5-16
		c3.9-7.5,8.7-14.3,14.7-20.3c11.6-11.7,21.2-24.6,27-40.5c5.7-15.6,16.5-27.4,31.5-34.6c13.7-6.5,27.7-12.5,41.7-18.5
		c7.1-3.1,14.7-3.8,22.4-3c1.9,0.2,3.9,0.3,5.8,0.3c13.9,0,27.7,0.1,41.6,0c8-0.1,16-0.5,23.6-3.3c17.7-6.4,31.8-17.2,37.9-35.5
		c5.9-17.6,5.9-35.7-0.8-53.3c-1.7-4.4-2-8.5-0.4-13c1.6-4.2,2.4-8.6,3.5-13c2.4-9.4,3.3-18.8-2-28.3c2.3-1.8,4.3-3.1,6-4.7
		c3.7-3.4,6.6-7.2,6.2-12.6c-0.7-8.9-1.8-17.8-2.1-26.8c-0.2-8.4,0.4-16.7,0.7-25.1c0.1-3,1.6-4.7,4.6-5c1.4-0.2,2.7-0.5,4-0.6
		c8-0.4,15.9-1,23.9-1.1c9.9-0.1,18-4.2,25.6-10.1c6.1-4.8,7.9-10.6,6.6-18c-2.8-16.4-10-30.7-20.1-43.6
		c-8.8-11.2-17.7-22.2-25.4-34.3c-9.1-14.3-18.7-28.3-27.9-42.5c-2.9-4.5-5-9.4-4.4-14.9c0.8-7.3,1.5-14.7,2.9-22
		c1.4-7.3,2.2-14.7,1.5-22.1c-1.6-16.4-7.1-31.4-15.6-45.4c-6.2-10.1-12.2-20.4-17.9-30.9c-10.6-19.4-22-38.2-35.7-55.6
		c-11.7-14.9-24-29.3-38.8-41.2c-16.8-13.6-33.8-27-51-40.1c-6.6-5-14-9.2-21.3-13.3c-12.7-7-26.7-10.8-40.2-15.9
		c-12.6-4.7-25.3-9.1-37.7-14.2c-21.2-8.7-42.6-16.1-65.5-19c-15.9-2-31.7-4.3-47.5-6.5c-28.9-4-57.1-1.5-84.8,7.8
		c-5,1.7-10.2,2.6-15.3,3.8c-6.6,1.6-13.3,3-19.8,4.8c-3.3,0.9-6.5,2.5-9.7,4c-5.7,2.5-11.8,4.5-16.9,7.9
		C122,42.4,106.5,53.1,92.5,66c-12.1,11.1-23.9,22.4-33.2,36.1c-6,8.9-11.4,18.2-16.7,27.5c-12.2,21.1-24,42.5-28.9,66.8
		c-2,10.1-3.8,20.3-5.8,30.4c-0.9,4.6-2.3,9.1-3,13.7c-1,6.9-1.7,13.9-2.1,20.9c-0.6,12.2-1.7,24.5,0.2,36.8
		c1.6,10.4,3.1,20.8,4.9,31.2c3.1,17.7,6.8,35.2,13.3,52c6.4,16.5,13.1,33,19.8,49.4c6.9,17,14.1,33.8,24.8,48.9
		c11.4,16.1,17.5,34.2,20.1,53.7c1.3,9.8,3.4,19.6,5.8,29.2c4.7,18.8,7.9,37.7,8.4,57.1c0.3,10.6-1.9,20.9-3.9,31.2
		c-1.7,9-3,18-4.2,27.1c-1.2,8.9-3.9,16.7-12.4,21.2c-2.1,1.1-3.9,2.5-5.8,3.9c-8.6,6-16.9,12.5-24.3,20.1
		C44.3,728.8,41.4,734.8,41.2,741.3"/>
</g>
</svg>
